<svg width="179" height="21" viewBox="0 0 179 21" fill="none" xmlns="http://www.w3.org/2000/svg">
<g id="Karkinos Logo R 2" clip-path="url(#clip0_533_666)">
<g id="Layer_x0020_1">
<g id="_2356438448624">
<g id="Group 2908">
<path id="Path 181182" d="M47.3825 19.5588H50.4051L42.1902 9.61726L49.9136 1.48228H46.97L37.155 11.5799V1.48228H34.5709V19.5575H37.155V14.8837L40.4601 11.5273L47.3825 19.5588ZM66.6499 19.5588H69.363L61.15 1.48357H58.5923L50.4048 19.5588H53.065C55.3311 14.4119 57.5951 9.26456 59.8571 4.11649C61.0129 6.74188 62.1675 9.3661 63.3207 11.9893H58.6441L57.7397 14.0574H64.2313L66.6499 19.5588ZM64.229 14.0577C65.0379 15.8907 65.8448 17.7243 66.6499 19.5588L64.229 14.0577ZM86.9538 19.5588L82.6653 13.49C85.1971 12.5866 86.6423 10.5725 86.6423 7.78249C86.6423 3.85844 83.8023 1.48115 79.0999 1.48115H72.0496V19.5564H74.6322V14.0559H79.0992C79.4887 14.0559 79.8752 14.0287 80.236 14.0063L84.1367 19.5556L86.9538 19.5588ZM79.0251 11.8632H74.6332V3.7308H79.0251C82.3303 3.7308 84.061 5.20027 84.061 7.7841C84.061 10.3679 82.3335 11.8613 79.0286 11.8613L79.0251 11.8632ZM103.639 19.5588H106.661L98.4455 9.61726L106.169 1.48228H103.224L93.4106 11.5799V1.48228H90.827V19.5575H93.4106V14.8837L96.717 11.5273L103.639 19.5588ZM109.399 19.5588H111.982V1.48373H109.399V19.5588ZM130.372 1.48357V14.9615L119.524 1.48357H117.404V19.5588H119.987V6.07864L130.835 19.5588H132.954V1.48373L130.372 1.48357ZM146.542 19.7657C152.043 19.7657 156.123 15.8404 156.123 10.5213C156.123 5.20227 152.043 1.27799 146.542 1.27799C140.989 1.27799 136.908 5.22819 136.908 10.5213C136.908 15.8145 140.992 19.7657 146.543 19.7657H146.542ZM146.542 17.4676C142.489 17.4676 139.49 14.5256 139.49 10.5213C139.49 6.51705 142.487 3.57601 146.542 3.57601C150.544 3.57601 153.541 6.51936 153.541 10.5213C153.541 14.5233 150.546 17.466 146.543 17.466L146.542 17.4676ZM165.346 19.7657C170.125 19.7657 172.343 17.3907 172.343 14.6316C172.343 7.99935 161.393 10.7679 161.393 6.34147C161.393 4.76383 162.71 3.47072 165.782 3.47072C167.542 3.48444 169.263 3.99472 170.746 4.94286L171.599 2.87896C170.1 1.84503 167.903 1.27734 165.784 1.27734C161.032 1.27734 158.863 3.65279 158.863 6.4445C158.863 13.1645 169.816 10.3792 169.816 14.786C169.816 16.362 168.472 17.571 165.349 17.571C163.023 17.571 160.725 16.697 159.38 15.4826L158.425 17.4926C159.874 18.8345 162.583 19.7652 165.35 19.7652L165.346 19.7657Z" fill="#7D2C7D"/>
</g>
<g id="_2356438450160">
<path id="Ellipse 84" d="M1.68025 19.2896C1.59879 18.8664 1.18961 18.5893 0.766328 18.6707C0.343048 18.7522 0.0659514 19.1614 0.147416 19.5847C0.228881 20.0079 0.638059 20.285 1.06134 20.2036C1.48462 20.1221 1.76172 19.7129 1.68025 19.2896Z" fill="#B174AE"/>
<path id="Ellipse 85" d="M24.0258 15.1262C24.1073 14.703 23.8302 14.2938 23.4069 14.2123C22.9836 14.1309 22.5744 14.408 22.493 14.8312C22.4115 15.2545 22.6886 15.6637 23.1119 15.7452C23.5352 15.8266 23.9443 15.5495 24.0258 15.1262Z" fill="#B174AE"/>
<path id="Ellipse 86" d="M24.0258 10.6682C24.1073 10.245 23.8302 9.83578 23.4069 9.75432C22.9836 9.67285 22.5744 9.94995 22.493 10.3732C22.4115 10.7965 22.6886 11.2057 23.1119 11.2872C23.5352 11.3686 23.9443 11.0915 24.0258 10.6682Z" fill="#B174AE"/>
<path id="Ellipse 87" d="M28.5342 10.6682C28.6157 10.245 28.3386 9.83578 27.9153 9.75432C27.492 9.67285 27.0829 9.94995 27.0014 10.3732C26.9199 10.7965 27.197 11.2057 27.6203 11.2872C28.0436 11.3686 28.4528 11.0915 28.5342 10.6682Z" fill="#B174AE"/>
<path id="Ellipse 88" d="M19.5164 6.21072C19.5979 5.78744 19.3208 5.37826 18.8975 5.2968C18.4742 5.21533 18.065 5.49243 17.9836 5.91571C17.9021 6.33899 18.1792 6.74817 18.6025 6.82963C19.0258 6.9111 19.4349 6.634 19.5164 6.21072Z" fill="#B174AE"/>
<path id="Ellipse 89" d="M24.0258 6.21072C24.1073 5.78744 23.8302 5.37826 23.4069 5.2968C22.9836 5.21533 22.5744 5.49243 22.493 5.91571C22.4115 6.33899 22.6886 6.74817 23.1119 6.82963C23.5352 6.9111 23.9443 6.634 24.0258 6.21072Z" fill="#B174AE"/>
<path id="Ellipse 90" d="M1.68025 1.45859C1.59879 1.03531 1.18961 0.758214 0.766328 0.839679C0.343048 0.921144 0.0659514 1.33032 0.147416 1.7536C0.228881 2.17688 0.638059 2.45398 1.06134 2.37251C1.48462 2.29105 1.76172 1.88187 1.68025 1.45859Z" fill="#B174AE"/>
<path id="Ellipse 91" d="M6.13948 14.8321C6.05801 14.4088 5.64884 14.1317 5.22556 14.2132C4.80228 14.2947 4.52518 14.7039 4.60664 15.1271C4.68811 15.5504 5.09729 15.8275 5.52057 15.746C5.94385 15.6646 6.22094 15.2554 6.13948 14.8321Z" fill="#B174AE"/>
<path id="Ellipse 92" d="M6.13948 5.9166C6.05801 5.49332 5.64884 5.21622 5.22556 5.29769C4.80228 5.37915 4.52518 5.78833 4.60664 6.21161C4.68811 6.63489 5.09729 6.91199 5.52057 6.83052C5.94385 6.74906 6.22094 6.33988 6.13948 5.9166Z" fill="#B174AE"/>
<path id="Ellipse 93" d="M10.5983 19.2896C10.5169 18.8664 10.1077 18.5893 9.68442 18.6707C9.26114 18.7522 8.98404 19.1614 9.06551 19.5847C9.14697 20.0079 9.55615 20.285 9.97943 20.2036C10.4027 20.1221 10.6798 19.7129 10.5983 19.2896Z" fill="#B174AE"/>
<path id="Ellipse 94" d="M10.5983 14.8321C10.5169 14.4088 10.1077 14.1317 9.68442 14.2132C9.26114 14.2947 8.98404 14.7039 9.06551 15.1271C9.14697 15.5504 9.55615 15.8275 9.97943 15.746C10.4027 15.6646 10.6798 15.2554 10.5983 14.8321Z" fill="#B174AE"/>
<path id="Ellipse 95" d="M10.5983 5.9166C10.5169 5.49332 10.1077 5.21622 9.68442 5.29769C9.26114 5.37915 8.98404 5.78833 9.06551 6.21161C9.14697 6.63489 9.55615 6.91199 9.97943 6.83052C10.4027 6.74906 10.6798 6.33988 10.5983 5.9166Z" fill="#B174AE"/>
<path id="Ellipse 96" d="M10.5983 1.45859C10.5169 1.03531 10.1077 0.758214 9.68442 0.839679C9.26114 0.921144 8.98404 1.33032 9.06551 1.7536C9.14697 2.17688 9.55615 2.45398 9.97943 2.37251C10.4027 2.29105 10.6798 1.88187 10.5983 1.45859Z" fill="#B174AE"/>
<path id="Ellipse 97" d="M15.0574 19.2896C14.976 18.8664 14.5668 18.5893 14.1435 18.6707C13.7202 18.7522 13.4431 19.1614 13.5246 19.5847C13.6061 20.0079 14.0153 20.285 14.4385 20.2036C14.8618 20.1221 15.1389 19.7129 15.0574 19.2896Z" fill="#B174AE"/>
<path id="Ellipse 98" d="M15.0574 10.3741C14.976 9.95084 14.5668 9.67374 14.1435 9.75521C13.7202 9.83667 13.4431 10.2458 13.5246 10.6691C13.6061 11.0924 14.0153 11.3695 14.4385 11.288C14.8618 11.2066 15.1389 10.7974 15.0574 10.3741Z" fill="#B174AE"/>
<path id="Ellipse 99" d="M15.0574 1.45859C14.976 1.03531 14.5668 0.758214 14.1435 0.839679C13.7202 0.921144 13.4431 1.33032 13.5246 1.7536C13.6061 2.17688 14.0153 2.45398 14.4385 2.37251C14.8618 2.29105 15.1389 1.88187 15.0574 1.45859Z" fill="#B174AE"/>
<path id="Ellipse 100" d="M19.5168 14.8321C19.4353 14.4088 19.0262 14.1317 18.6029 14.2132C18.1796 14.2947 17.9025 14.7039 17.984 15.1271C18.0654 15.5504 18.4746 15.8275 18.8979 15.746C19.3212 15.6646 19.5983 15.2554 19.5168 14.8321Z" fill="#B174AE"/>
<path id="Ellipse 101" d="M19.5168 10.3741C19.4353 9.95084 19.0262 9.67374 18.6029 9.75521C18.1796 9.83667 17.9025 10.2458 17.984 10.6691C18.0654 11.0924 18.4746 11.3695 18.8979 11.288C19.3212 11.2066 19.5983 10.7974 19.5168 10.3741Z" fill="#B174AE"/>
<path id="Path 181183" fill-rule="evenodd" clip-rule="evenodd" d="M14.5735 4.60606C14.285 4.55035 13.9865 4.58139 13.7157 4.69539C13.4449 4.80939 13.214 5.0011 13.0522 5.24635C12.8905 5.49161 12.8051 5.7794 12.8069 6.0732C12.8087 6.367 12.8976 6.65357 13.0624 6.89682C13.2272 7.14007 13.4604 7.32906 13.7325 7.43972C14.0047 7.55039 14.3036 7.57782 14.5914 7.51857C14.8791 7.45932 15.1428 7.3161 15.3491 7.10692C15.5554 6.89774 15.6951 6.632 15.7504 6.34344C15.8241 5.95703 15.7416 5.55722 15.521 5.23152C15.3004 4.90582 14.9597 4.68091 14.5735 4.60606Z" fill="#7D2C7D"/>
<path id="Path 181184" fill-rule="evenodd" clip-rule="evenodd" d="M14.5735 4.60606C14.285 4.55035 13.9865 4.58139 13.7157 4.69539C13.4449 4.80939 13.214 5.0011 13.0522 5.24635C12.8905 5.49161 12.8051 5.7794 12.8069 6.0732C12.8087 6.367 12.8976 6.65357 13.0624 6.89682C13.2272 7.14007 13.4604 7.32906 13.7325 7.43972C14.0047 7.55039 14.3036 7.57782 14.5914 7.51857C14.8791 7.45932 15.1428 7.3161 15.3491 7.10692C15.5554 6.89774 15.6951 6.632 15.7504 6.34344C15.8241 5.95703 15.7416 5.55722 15.521 5.23152C15.3004 4.90582 14.9597 4.68091 14.5735 4.60606Z" fill="#7D2C7D"/>
<path id="Path 181185" fill-rule="evenodd" clip-rule="evenodd" d="M5.65482 3.06526C5.36637 3.12094 5.06784 3.08994 4.7971 2.97593C4.52635 2.86193 4.29556 2.67005 4.13383 2.42481C3.97209 2.17957 3.88675 1.89189 3.88858 1.59812C3.89041 1.30435 3.97929 1.01771 4.14407 0.774498C4.30884 0.531288 4.54204 0.342545 4.81419 0.231919C5.08634 0.121294 5.38523 0.0938015 5.67296 0.153072C5.96069 0.212343 6.22437 0.355708 6.43064 0.564884C6.63691 0.77406 6.77649 1.03967 6.83173 1.3282C6.90566 1.71459 6.82326 2.11444 6.6026 2.44013C6.38195 2.76582 6.04108 2.99065 5.65482 3.06526Z" fill="#7D2C7D"/>
<path id="Path 181186" fill-rule="evenodd" clip-rule="evenodd" d="M5.65484 11.9849C5.26848 12.0593 4.86835 11.9773 4.54251 11.7567C4.21668 11.5361 3.99174 11.1951 3.9173 10.8088C3.84286 10.4224 3.92498 10.0222 4.14554 9.69635C4.3661 9.37051 4.70703 9.14566 5.0934 9.07121C5.33006 9.02421 5.57471 9.03708 5.8052 9.10846C6.12259 9.20469 6.3986 9.40442 6.58916 9.67587C6.77971 9.94732 6.87383 10.2747 6.8565 10.6059C6.83916 10.9371 6.71139 11.253 6.49354 11.5031C6.27569 11.7531 5.9803 11.9231 5.6546 11.9857L5.65484 11.9849Z" fill="#7D2C7D"/>
<path id="Path 181187" fill-rule="evenodd" clip-rule="evenodd" d="M5.65165 20.912C5.26536 20.9857 4.86557 20.9033 4.53989 20.6828C4.21421 20.4624 3.98923 20.1219 3.91419 19.7359C3.54517 17.8188 6.45889 17.254 6.82791 19.1735C6.86492 19.3648 6.86387 19.5615 6.82477 19.7525C6.78567 19.9434 6.70932 20.1249 6.60008 20.2863C6.49084 20.4478 6.35084 20.586 6.18811 20.6933C6.02537 20.8006 5.84307 20.8749 5.65165 20.9116V20.912Z" fill="#7D2C7D"/>
<path id="Path 181188" fill-rule="evenodd" clip-rule="evenodd" d="M10.1135 11.9843C9.82537 12.04 9.5273 12.009 9.2568 11.8953C8.9863 11.7815 8.7556 11.5901 8.59386 11.3453C8.43211 11.1004 8.34653 10.8132 8.34804 10.5197C8.34956 10.2263 8.43806 9.93989 8.60232 9.69674C8.76658 9.45359 8.99925 9.26461 9.27091 9.15368C9.54257 9.04274 9.84104 9.01472 10.1286 9.07338C10.4161 9.13204 10.6797 9.27476 10.8862 9.48326C11.0927 9.69175 11.2327 9.95673 11.2886 10.2448C11.3258 10.4362 11.3249 10.6329 11.2859 10.824C11.247 11.015 11.1708 11.1966 11.0617 11.3582C10.9525 11.5197 10.8126 11.6582 10.6499 11.7656C10.4872 11.8731 10.3049 11.9473 10.1135 11.9843Z" fill="#7D2C7D"/>
<path id="Path 181189" fill-rule="evenodd" clip-rule="evenodd" d="M14.5733 16.4463C14.285 16.5019 13.9866 16.4707 13.716 16.3566C13.4454 16.2426 13.2148 16.0508 13.0531 15.8057C12.8915 15.5605 12.8063 15.2729 12.8081 14.9793C12.81 14.6857 12.8988 14.3993 13.0635 14.1562C13.2282 13.9131 13.4613 13.7242 13.7333 13.6136C14.0053 13.503 14.304 13.4757 14.5916 13.5349C14.8792 13.5941 15.1428 13.7372 15.3491 13.9462C15.5553 14.1553 15.6949 14.4207 15.7502 14.7091C15.8244 15.0955 15.742 15.4956 15.5214 15.8213C15.3007 16.1471 14.9597 16.3719 14.5733 16.4463Z" fill="#7D2C7D"/>
<path id="Path 181190" fill-rule="evenodd" clip-rule="evenodd" d="M19.0325 20.9005C18.7444 20.9562 18.4463 20.9253 18.1758 20.8115C17.9053 20.6977 17.6746 20.5061 17.5129 20.2612C17.3512 20.0162 17.2658 19.7289 17.2675 19.4354C17.2692 19.142 17.3579 18.8557 17.5223 18.6126C17.6868 18.3696 17.9196 18.1807 18.1914 18.07C18.4632 17.9593 18.7616 17.9317 19.0491 17.9907C19.3366 18.0497 19.6002 18.1926 19.8064 18.4014C20.0126 18.6102 20.1523 18.8754 20.2078 19.1636C20.2821 19.5498 20.2 19.9497 19.9796 20.2754C19.7593 20.6011 19.4186 20.8258 19.0325 20.9005Z" fill="#7D2C7D"/>
<path id="Path 181191" fill-rule="evenodd" clip-rule="evenodd" d="M19.0317 0.149741C18.7433 0.0937972 18.4448 0.124614 18.1739 0.238424C17.903 0.352234 17.672 0.543897 17.5101 0.789065C17.3481 1.03423 17.2625 1.32194 17.2642 1.61575C17.2658 1.90956 17.3546 2.1962 17.5193 2.43954C17.6839 2.68287 17.9172 2.87184 18.1893 2.9826C18.4614 3.09336 18.7603 3.12095 19.0481 3.06177C19.3359 3.00259 19.5996 2.85943 19.806 2.65028C20.0124 2.44112 20.152 2.17537 20.2073 1.8868C20.2813 1.5006 20.1992 1.10086 19.9788 0.775198C19.7584 0.449533 19.4178 0.224613 19.0317 0.149741Z" fill="#7D2C7D"/>
</g>
</g>
</g>
<path id="Path 206291" d="M176.968 0.702137C176.727 0.698405 176.487 0.743152 176.263 0.833732C176.039 0.924313 175.835 1.05889 175.664 1.2295C175.493 1.40012 175.358 1.60328 175.267 1.82697C175.175 2.05067 175.13 2.29036 175.133 2.5319C175.13 2.77267 175.175 3.01165 175.265 3.23477C175.356 3.4579 175.49 3.66068 175.66 3.83117C175.83 4.00165 176.032 4.1364 176.255 4.22751C176.478 4.31861 176.717 4.36423 176.958 4.36167C177.2 4.36425 177.44 4.31835 177.664 4.22668C177.889 4.135 178.092 3.9994 178.263 3.82787C178.434 3.65643 178.569 3.45255 178.66 3.22821C178.751 3.00386 178.797 2.76359 178.793 2.5215C178.798 2.28081 178.754 2.04163 178.664 1.81838C178.574 1.59512 178.44 1.39239 178.269 1.2224C178.099 1.05237 177.896 0.918624 177.672 0.829211C177.448 0.739798 177.209 0.696572 176.968 0.702137ZM176.958 4.16948C176.742 4.17245 176.528 4.13211 176.328 4.05085C176.128 3.9696 175.947 3.84909 175.794 3.69644C175.642 3.5437 175.522 3.36194 175.441 3.16191C175.36 2.96188 175.32 2.74765 175.323 2.5319C175.32 2.31515 175.36 2.09988 175.441 1.89897C175.523 1.69807 175.644 1.51564 175.797 1.36258C175.951 1.20955 176.134 1.08904 176.335 1.00825C176.536 0.927455 176.751 0.888036 176.968 0.892345C177.183 0.887463 177.397 0.926281 177.597 1.00645C177.797 1.08663 177.978 1.20649 178.13 1.35879C178.283 1.51107 178.402 1.69262 178.482 1.89247C178.562 2.09232 178.601 2.30631 178.596 2.5215C178.599 2.73797 178.559 2.9529 178.478 3.15365C178.397 3.3544 178.276 3.53692 178.124 3.69049C177.971 3.84398 177.789 3.9654 177.589 4.04763C177.389 4.12986 177.174 4.1714 176.958 4.16948ZM177.886 2.17906C177.886 1.7539 177.57 1.4846 177.056 1.4846H176.247V3.58152H176.517V2.88425H177.055C177.095 2.88469 177.135 2.88249 177.175 2.87765L177.626 3.58086H177.907L177.419 2.83637C177.559 2.79469 177.681 2.70738 177.765 2.58834C177.85 2.46931 177.892 2.32541 177.886 2.17956V2.17906ZM177.041 2.6564H176.512V1.71295H177.041C177.409 1.71295 177.62 1.88417 177.62 2.17956C177.62 2.47494 177.409 2.6564 177.041 2.6564Z" fill="#7D2C7D" stroke="#7D2C7D" stroke-width="0.0412779"/>
</g>
<defs>
<clipPath id="clip0_533_666">
<rect width="178.814" height="20.816" fill="white" transform="translate(0 0.12207)"/>
</clipPath>
</defs>
</svg>
